<?xml version="1.0" encoding="utf-8"?>
<!-- Generator: Adobe Illustrator 26.2.1, SVG Export Plug-In . SVG Version: 6.00 Build 0)  -->
<svg version="1.1" id="Layer_1" xmlns="http://www.w3.org/2000/svg" xmlns:xlink="http://www.w3.org/1999/xlink" x="0px" y="0px"
	 viewBox="0 0 16 16" style="enable-background:new 0 0 16 16;" xml:space="preserve">
<style type="text/css">
	.st0{fill:#689DC8;}
	.st1{fill:#3FA548;}
	.st2{fill:#EF5023;}
</style>
<g>
	<path class="st0" d="M5.4,3.7C5.7,3.7,6,3.4,6,3S5.7,2.4,5.4,2.4S4.7,2.6,4.7,3C4.7,3.4,5,3.7,5.4,3.7"/>
	<path class="st0" d="M10.7,1.9c-0.5,0-0.8,0.4-0.8,0.8s0.4,0.8,0.8,0.8c0.5,0,0.8-0.4,0.8-0.8C11.5,2.2,11.1,1.9,10.7,1.9"/>
	<path class="st0" d="M1.4,7.3c0.4,0,0.7-0.3,0.7-0.7S1.8,6,1.4,6S0.7,6.3,0.7,6.7C0.8,7,1,7.3,1.4,7.3"/>
	<path class="st0" d="M8.4,15.6c-3.5,0-6.3-2.8-6.3-6.4c0-0.3,0-0.5,0-0.8c0.8-0.4,1.5-1,1.9-1.7c0,0,0-0.1,0-0.2
		c0-0.2-0.1-0.3-0.4-0.3c-0.1,0-0.3,0.1-0.3,0.2C3.2,7.2,2.4,7.8,1.5,7.8C1,7.8,0.6,7.6,0.2,7.3c0,0.2,0,0.4,0,0.6v0.3l0,0
		c0,0,0,0.1,0,0.2v0c0,0,0,0.1,0,0.1v0v0c0.4,4,3.7,7.1,7.7,7.1c0.2,0,0.5,0,0.7,0c0,0,0-0.1-0.1-0.1C8.6,15.6,8.5,15.6,8.4,15.6"/>
	<path class="st0" d="M1.1,5.6c0.1,0,0.2-0.3,0.3-0.5c0-0.1,0.1-0.1,0.2-0.1c0.1,0,0.9,0.5,1.9,1.3l0,0l0.3-0.1l0-0.1
		C3.3,5.8,2.3,5.1,1.5,4.8C1.3,4.8,1,5.1,0.9,5.1c0,0-0.2,0.2-0.1,0.4C0.9,5.6,1,5.6,1.1,5.6"/>
	<path class="st1" d="M9.1,3.3c0-0.6-0.5-1.1-1.1-1.1c-0.6,0-1.1,0.5-1.1,1.1c0,0.6,0.5,1.1,1.1,1.1C8.7,4.4,9.1,3.9,9.1,3.3"/>
	<path class="st1" d="M7.9,1.4c0.3-0.3,0.3-0.7,0-1c-0.3-0.3-0.7-0.3-1,0s-0.3,0.7,0,1C7.1,1.6,7.6,1.6,7.9,1.4"/>
	<path class="st1" d="M2.7,2.7c-0.5,0-0.8,0.4-0.8,0.8s0.4,0.8,0.8,0.8s0.8-0.4,0.8-0.8S3.2,2.7,2.7,2.7"/>
	<path class="st1" d="M12.1,2.3c0.2,0,0.4-0.2,0.4-0.4c0-0.2-0.2-0.4-0.4-0.4c-0.2,0-0.4,0.2-0.4,0.4C11.7,2.1,11.9,2.3,12.1,2.3"/>
	<path class="st1" d="M13.3,4.4c-0.4,0-0.8,0.4-0.8,0.8S12.9,6,13.3,6s0.8-0.4,0.8-0.8C14.1,4.8,13.8,4.4,13.3,4.4"/>
	<path class="st1" d="M15.6,6.4c-0.1-0.4-0.4-0.6-0.7-0.6c-0.2,0-0.4,0.1-0.5,0.2c-0.4,0.4-0.9,0.8-1.5,0.8c-0.8,0-1.5-0.5-1.8-1.2
		c0-0.1-0.1-0.2-0.2-0.3C12,4,13,3.3,13.2,3.2c0.1-0.1,0.2,0,0.3,0c0.1,0.2,0.3,0.5,0.4,0.5c0.1,0,0.3,0,0.4-0.3
		c0.1-0.2-0.1-0.4-0.2-0.4c-0.1,0-0.5-0.3-0.7-0.2c-1.1,0.5-2.3,1.9-2.7,2.3c-0.2,0-0.4,0.2-0.4,0.4c0,0.1,0,0.1,0,0.2l0,0
		c0,0,0,0,0,0C10.9,7,12,7.7,13.2,7.8c0.3,0.7,0.5,1.5,0.5,2.3c0,3.1-2.5,5.6-5.5,5.6c-0.1,0-0.3,0-0.4,0c0,0,0.1,0.1,0.1,0.2H8
		c4.3,0,7.7-3.5,7.7-7.8C15.8,7.2,15.6,6.4,15.6,6.4"/>
	<path class="st2" d="M9.9,1.5c0.3,0,0.5-0.2,0.5-0.5s-0.2-0.5-0.5-0.5S9.4,0.6,9.4,1C9.4,1.2,9.6,1.5,9.9,1.5"/>
	<path class="st2" d="M4.7,1.6c0-0.2-0.2-0.4-0.4-0.4c-0.2,0-0.4,0.2-0.4,0.4c0,0.2,0.2,0.4,0.4,0.4C4.5,2.1,4.7,1.8,4.7,1.6"/>
	<path class="st2" d="M6.5,7.5c0.4,0,0.8-0.4,0.8-0.8S7,5.9,6.5,5.9S5.7,6.2,5.7,6.7C5.7,7.1,6.1,7.5,6.5,7.5"/>
	<path class="st2" d="M9.7,8.6C9.4,8.6,9,8.9,9,9.2c0,0.4,0.3,0.7,0.7,0.7c0.4,0,0.7-0.3,0.7-0.7C10.4,8.9,10.1,8.6,9.7,8.6"/>
	<path class="st2" d="M11.8,10.1c0,0,0-0.1,0-0.1v0c-0.1-0.3-0.4-0.5-0.7-0.5c-0.4,0-0.7,0.4-0.7,0.4C9.9,10.5,9.1,11,8.2,11
		c-0.2,0-0.4,0-0.7-0.1c1.3-2.5,2.5-3.3,2.5-3.3s0.1,0.1,0.3,0.1c0.3,0,0.5-0.1,0.4-0.2c-0.2-0.2-0.5-0.3-0.7-0.2
		C8.4,8.7,7.5,10.5,7.2,11c-0.1,0-0.1,0.1-0.1,0.3c0,0.1,0.1,0.3,0.2,0.3c0.3,0.1,0.7,0.2,1.1,0.2s0.8-0.1,1.1-0.2
		c0,0,0.1-0.1,0.3-0.1c0.3,0,0.6,0.3,0.6,0.6c0,0,0,1.1-0.9,2.2l0,0c-0.4,0.5-1,0.8-1.7,0.8c-0.8,0-1.5-0.4-1.8-1
		c-0.3-0.6-0.5-1.3-0.5-2c0-1.6,0.9-3.1,2.3-3.8C8.5,7.9,9,7.2,9.1,6.4c0-0.1,0-0.8-0.5-0.8h0c-0.6-0.4-2-1-3.4-1
		C5,4.6,4.8,4.9,4.7,5.1c0,0.1,0.3,0.1,0.5,0C5.3,5,5.3,4.8,5.3,4.8s0.7-0.3,3.1,1c0,0,0,0.2,0,0.2C8.3,7,7.4,7.8,6.4,7.8
		c-0.1,0-0.2,0-0.3,0c-0.1,0-0.1,0-0.2,0c-0.3,0-0.6,0.1-0.8,0.4l0,0C4.6,8.9,4.3,9.9,4.3,11c0,1.5,0.6,2.9,1.6,3.9L6.1,15
		c0,0,0.8,0.7,1.9,0.7c0.4,0,0.8-0.1,1.1-0.2c0,0,0.1,0,0.1-0.1c0,0,0,0,0.1,0l0,0c0,0,0,0,0,0l0,0c0,0,0,0,0,0
		c1.5-0.8,2.7-2.5,2.7-4.4C11.9,10.7,11.8,10.4,11.8,10.1"/>
</g>
</svg>
