<?xml version="1.0" encoding="utf-8"?>
<!-- Generator: Adobe Illustrator 26.2.1, SVG Export Plug-In . SVG Version: 6.00 Build 0)  -->
<svg version="1.1" id="Capa_1" xmlns="http://www.w3.org/2000/svg" xmlns:xlink="http://www.w3.org/1999/xlink" x="0px" y="0px"
	 viewBox="0 0 58.01 61" style="enable-background:new 0 0 58.01 61;" xml:space="preserve">
<style type="text/css">
	.st0{opacity:0.3;}
</style>
<g class="st0">
	<path d="M37.27,22.92l2.69,1.56c0.24,0.14,0.62,0.14,0.86,0l1.53-0.9c0.24-0.14,0.24-0.36,0-0.5l-2.69-1.56
		c-0.24-0.14-0.62-0.14-0.86,0l-1.53,0.9C37.03,22.56,37.03,22.79,37.27,22.92z"/>
	<path d="M57.99,28.04l0.01-7.22c0-0.02,0-0.04,0-0.06v-0.01l0,0c-0.02-0.16-0.14-0.32-0.35-0.46L22.85,0.21
		c-0.47-0.27-1.26-0.27-1.73,0L0.37,12.25c-0.27,0.16-0.39,0.37-0.34,0.59l0,0v6.85L0,19.71l0.04,0.02v6.71L0,26.47l0.04,0.02v6.72
		L0,33.24l0.04,0.02V40L33.6,59.43l2,1.16L36.3,61l21.66-12.58l0.01-6.8v-0.01L57.99,28.04l0.01-0.01L57.99,28.04z M9.24,10.9
		c-0.2-0.11-0.4-0.21-0.62-0.3l9.67-5.61c0.15,0.12,0.31,0.25,0.51,0.36c1.77,1.02,4.63,1.02,6.39,0c0.2-0.11,0.37-0.24,0.52-0.37
		l23.53,13.57c-0.31,0.11-0.61,0.24-0.87,0.4c-1.76,1.02-1.74,2.68,0.02,3.7c0.27,0.16,0.57,0.29,0.9,0.4l-9.76,5.68
		c-0.19-0.19-0.42-0.36-0.7-0.51c-1.77-1.02-4.63-1.02-6.39,0c-0.14,0.07-0.25,0.16-0.36,0.25L8.61,14.91
		c0.22-0.09,0.44-0.19,0.65-0.31C11.02,13.57,11,11.92,9.24,10.9z M55.39,46.77L36.29,57.86L2.6,38.38v-3.63l30.96,17.89l2,1.16
		l0.71,0.41l19.12-11.13L55.39,46.77L55.39,46.77z M55.39,39.95L36.25,51.07L2.6,31.61v-3.63L33.6,45.9l2,1.16l0.7,0.41l19.09-11.1
		V39.95z M55.39,33.02L36.29,44.33L2.6,24.86v-3.65L33.56,39.1l2,1.16l0.71,0.41l19.12-11.12L55.39,33.02L55.39,33.02z M55.39,26.41
		L36.25,37.52L2.6,18.11v-3.56l32.58,18.81c0.49,0.27,1.26,0.27,1.73,0l18.48-10.74V26.41z"/>
	<path d="M15.68,10.46l2.69,1.56c0.24,0.14,0.62,0.14,0.86,0l1.53-0.9c0.24-0.14,0.24-0.36,0-0.5l-2.69-1.54
		c-0.24-0.14-0.62-0.14-0.86,0l-1.53,0.88C15.45,10.1,15.45,10.33,15.68,10.46z"/>
	<path d="M35.9,12.78c-3.82-2.2-10.01-2.2-13.82,0c-3.8,2.2-3.77,5.79,0.05,7.99s10.01,2.2,13.8,0S39.71,14.98,35.9,12.78z
		 M27.93,17.93h-2.69v-1.56v-1.51l2.69,0.01v1.51l6.15,0.01v1.56L27.93,17.93z"/>
</g>
</svg>
