<?xml version="1.0" encoding="utf-8"?>
<!-- Generator: Adobe Illustrator 26.2.1, SVG Export Plug-In . SVG Version: 6.00 Build 0)  -->
<svg version="1.1" id="Layer_1" xmlns="http://www.w3.org/2000/svg" xmlns:xlink="http://www.w3.org/1999/xlink" x="0px" y="0px"
	 viewBox="0 0 55.75 61" style="enable-background:new 0 0 55.75 61;" xml:space="preserve">
<style type="text/css">
	.st0{opacity:0.3;}
</style>
<g class="st0">
	<path d="M30.09,61c-5.07-1.38-10.14-2.77-15.21-4.15c-1.62-0.44-3.16-0.22-4.63,0.59c-0.37,0.2-0.75,0.4-1.2,0.64
		C9.02,57.86,9,57.72,9,57.58C9.1,54,9.22,50.42,9.3,46.83c0.01-0.45,0.17-0.69,0.55-0.91c4.1-2.32,8.25-2.42,12.43-0.27
		c1.86,0.96,3.78,1.51,5.88,1.53c2.5,0.02,5.01,0.13,7.51,0.21c2.2,0.07,4.09,1.52,4.71,3.61c0.05,0.16,0.07,0.33,0.12,0.58
		c-0.28,0-0.51,0.01-0.74,0c-3.76-0.1-7.51-0.2-11.27-0.3c-0.49-0.01-0.91,0.06-1.16,0.53c-0.37,0.69,0.12,1.4,1,1.43
		c2.74,0.09,5.48,0.16,8.22,0.24c1.58,0.05,3.15,0.09,4.73,0.13c0.94,0.02,1.38-0.35,1.24-1.28c-0.16-1.04,0.28-1.43,1.15-1.82
		c2.66-1.18,5.27-2.47,7.91-3.71c1.51-0.71,2.99-0.47,4.16,0.68c-0.2,0.14-0.38,0.27-0.57,0.39c-5.94,3.85-11.89,7.68-17.83,11.54
		c-1.28,0.83-2.71,1.2-4.18,1.46c-0.21,0.04-0.42,0.09-0.63,0.13C31.73,61,30.91,61,30.09,61z"/>
	<path d="M28.81,15.55c7.86,0,14.24,6.38,14.22,14.22c-0.02,7.85-6.4,14.2-14.26,14.19c-7.82-0.01-14.17-6.37-14.18-14.19
		C14.57,21.92,20.96,15.54,28.81,15.55z M27.62,37.89c0,0.23,0,0.44,0,0.66c0,1.06,0.29,1.52,0.96,1.52
		c0.69,0.01,1.02-0.45,0.98-1.49c-0.02-0.52,0.18-0.68,0.64-0.83c2.52-0.8,3.84-3.49,2.97-5.97c-0.65-1.85-2.3-3.01-4.42-3.12
		c-1.65-0.08-2.87-1.49-2.62-3.04c0.22-1.38,1.32-2.33,2.68-2.33c1.39,0.01,2.47,0.99,2.67,2.42c0.04,0.27,0.04,0.65,0.2,0.78
		c0.29,0.22,0.72,0.41,1.06,0.36c0.54-0.08,0.7-0.56,0.69-1.09c-0.05-1.91-1.39-3.66-3.26-4.24c-0.2-0.06-0.4-0.13-0.6-0.19
		c0-0.39,0.02-0.74,0-1.08c-0.03-0.6-0.43-0.98-0.98-0.98c-0.55,0.01-0.93,0.39-0.97,1c-0.01,0.17-0.02,0.35,0,0.52
		c0.04,0.43-0.06,0.67-0.54,0.85c-1.96,0.73-3.08,2.56-2.96,4.69c0.11,1.95,1.54,3.66,3.53,4.15c0.54,0.13,1.11,0.12,1.66,0.22
		c1.25,0.22,2.15,1.28,2.19,2.54c0.04,1.25-0.79,2.36-2.01,2.69c-1.71,0.46-3.19-0.66-3.41-2.57c-0.08-0.66-0.46-1.03-1.03-1.01
		c-0.57,0.03-1.02,0.47-0.91,1.09c0.14,0.79,0.33,1.61,0.69,2.32C25.4,36.88,26.42,37.51,27.62,37.89z"/>
	<path d="M0.48,42.68c2.36,0,4.62,0,6.96,0c-0.16,5.95-0.32,11.78-0.48,17.54c-2.35,0-4.62,0-6.97,0
		C0.16,54.28,0.32,48.46,0.48,42.68z"/>
	<path d="M27.76,6.35c0-1.71,0-3.41,0-5.12c0-0.79,0.39-1.25,1.01-1.23c0.6,0.02,0.95,0.45,0.95,1.22c0,3.41,0,6.82,0,10.23
		c0,0.75-0.37,1.2-0.97,1.2c-0.6,0-0.99-0.45-0.99-1.19C27.75,9.76,27.76,8.05,27.76,6.35z"/>
	<path d="M19.32,9.14c0-0.8-0.01-1.59,0-2.39c0.01-0.69,0.4-1.12,0.98-1.12c0.58,0,0.97,0.44,0.97,1.13c0.01,1.59,0.01,3.19,0,4.78
		c0,0.69-0.41,1.13-0.98,1.12c-0.58,0-0.96-0.44-0.97-1.13C19.31,10.73,19.32,9.93,19.32,9.14z"/>
	<path d="M38.16,9.18c0,0.8,0.01,1.6,0,2.4c-0.01,0.65-0.4,1.07-0.96,1.08c-0.55,0.01-0.99-0.42-0.99-1.06
		c-0.02-1.64-0.02-3.28,0-4.93c0.01-0.64,0.44-1.05,1.01-1.04c0.57,0.01,0.94,0.42,0.95,1.09C38.17,7.54,38.16,8.36,38.16,9.18z"/>
</g>
</svg>
