<?xml version="1.0" encoding="utf-8"?>
<!-- Generator: Adobe Illustrator 26.2.1, SVG Export Plug-In . SVG Version: 6.00 Build 0)  -->
<svg version="1.1" id="Layer_1" xmlns="http://www.w3.org/2000/svg" xmlns:xlink="http://www.w3.org/1999/xlink" x="0px" y="0px"
	 viewBox="0 0 54.39 61" style="enable-background:new 0 0 54.39 61;" xml:space="preserve">
<style type="text/css">
	.st0{opacity:0.3;}
</style>
<g class="st0">
	<path d="M27.78,38.47c0.82,1.14,1.67,2.16,1.52,3.72c-0.16,1.66-0.04,3.35-0.04,5.03c0,1.26,0.31,1.77,1.07,1.78
		c0.77,0.01,1.11-0.52,1.11-1.75c0-1.88,0.03-3.77-0.01-5.65c-0.01-0.69,0.13-1.28,0.56-1.82c0.32-0.4,0.59-0.86,0.91-1.34
		c0.43,0.21,0.83,0.4,1.23,0.6c1.36,0.68,2.72,1.36,4.08,2.03c1.01,0.5,1.37,0.4,1.99-0.52c1.11-1.66,2.22-3.32,3.33-4.98
		c0.12-0.19,0.26-0.37,0.43-0.61c2.3,1.12,4.66,2.11,6.85,3.38c2.27,1.31,3.44,3.48,3.51,6.1c0.08,3.22,0.02,6.44,0.02,9.66
		c0,0.09-0.02,0.17-0.04,0.33c-1.44,0-2.86,0-4.29,0c-1.43,0-2.86,0-4.4,0c0-0.26,0-0.5,0-0.73c0-2.5,0-4.99,0-7.49
		c0-0.18,0.01-0.36-0.01-0.54c-0.06-0.61-0.5-1.02-1.07-1.03c-0.6-0.01-1.07,0.42-1.1,1.07c-0.03,0.75-0.01,1.5-0.01,2.25
		c0,4.06,0,8.12,0,12.18c0,0.25,0,0.49,0,0.79C43.22,60.97,43.03,61,42.83,61c-2.71,0-5.41,0.01-8.11-0.01
		c-0.26,0-0.61-0.1-0.76-0.28c-1.76-2.16-3.49-4.35-5.25-6.56c1.29-1.68,1.04-3.26-0.21-4.83c-0.83-1.05-1.56-2.17-2.35-3.26
		c-1.19-1.65-2.65-2.03-4.52-1.16c-0.06,0.03-0.13,0.03-0.24,0.06c-2.32-2.92-4.65-5.85-7.01-8.81c0.81-0.38,1.57-0.74,2.37-1.12
		c0.14,0.19,0.28,0.36,0.4,0.55c1.14,1.7,2.27,3.4,3.41,5.09c0.54,0.8,0.96,0.91,1.84,0.47c1.57-0.78,3.13-1.56,4.69-2.34
		C27.31,38.69,27.53,38.59,27.78,38.47z M35.81,43.57c0-0.59-0.5-1.08-1.09-1.08c-0.59,0-1.08,0.5-1.08,1.09
		c0,0.59,0.5,1.08,1.09,1.08C35.32,44.65,35.81,44.15,35.81,43.57z M35.81,47.92c-0.01-0.59-0.5-1.08-1.1-1.07
		c-0.59,0.01-1.08,0.5-1.07,1.09c0.01,0.59,0.5,1.08,1.1,1.07C35.32,49.01,35.81,48.51,35.81,47.92z"/>
	<path d="M21.65,15.4c0.48,0.6,0.84,1.06,1.22,1.51c0.53,0.63,1.07,0.68,1.72,0.19c3.31-2.48,8.26-2.49,11.51-0.02
		c0.68,0.52,1.21,0.46,1.77-0.2c0.37-0.45,0.73-0.9,1.17-1.34c-0.09,2.49,0.49,5.03-0.73,7.39c-1.39,2.68-3.61,4.14-6.63,4.27
		c-1.74,0.07-3.51,0.2-5.18-0.51c-2.86-1.22-4.52-3.38-4.82-6.46C21.53,18.7,21.65,17.13,21.65,15.4z"/>
	<path d="M8.62,60.87c1.86-1.44,3.66-2.97,5.59-4.31c1.36-0.94,2.24-2.06,2.39-3.71c0.14-1.53,0.93-2.57,2.27-3.36
		c1.23-0.72,2.34-1.64,3.5-2.47c0.9-0.64,1.37-0.56,2,0.31c0.89,1.23,1.78,2.47,2.65,3.71c0.55,0.78,0.5,1.26-0.25,1.87
		c-3.2,2.62-6.4,5.23-9.6,7.83c-0.16,0.13-0.4,0.25-0.6,0.25C13.94,61,11.31,61,8.68,61C8.66,60.95,8.64,60.91,8.62,60.87z"/>
	<path d="M8.68,39.34c2.5,3.15,4.97,6.25,7.49,9.42c-1.45,0.75-1.2,2.27-1.65,3.48c-0.26,0.69-0.12,1.58-0.93,2.01
		c-0.17,0.09-0.37,0.21-0.55,0.21c-2.2,0.01-4.4,0.01-6.64,0.01c-0.02-0.21-0.04-0.39-0.05-0.56c0-3.06-0.01-6.12,0-9.18
		C6.37,42.62,7.24,40.6,8.68,39.34z"/>
	<path d="M6.34,29.54C5.81,30,5.31,30.42,4.76,30.89c-0.24-0.29-0.47-0.57-0.69-0.84c-1.23-1.54-2.45-3.09-3.69-4.63
		c-0.36-0.44-0.47-0.88-0.33-1.44c0.56-2.2,1.23-4.36,2.32-6.36c0.28-0.52,0.59-1.02,0.94-1.49c1.75-2.36,4.54-2.62,6.73-0.64
		c0.71,0.64,1.21,1.41,1.41,2.35c0.2,0.93,0.08,1.82-0.75,2.37c-1.43,0.95-2.89,1.87-4.38,2.71c-1.43,0.81-2.17,2.04-1.88,3.57
		c0.1,0.53,0.4,1.05,0.69,1.52C5.48,28.54,5.91,29.01,6.34,29.54z"/>
	<path d="M39.91,10.85c-1.05,1.31-2.11,2.64-3.15,3.93c-4.28-2.29-8.5-2.3-12.79,0c-1.04-1.3-2.1-2.62-3.17-3.96
		c0.64-0.89,1.51-1.43,2.46-1.8C27.95,7.18,32.68,7.16,37.4,9C38.61,9.47,39.36,10.08,39.91,10.85z"/>
	<path d="M20.76,7.77c0.56-4.56,3.79-7.47,8.63-7.74c2.11-0.12,4.18,0.07,6.1,1.05c2.75,1.4,3.97,3.82,4.5,6.7
		C33.54,4.68,27.17,4.68,20.76,7.77z"/>
	<path d="M30.35,38.32c-1.81-2.71-3.59-5.3-5.27-7.96c-0.3-0.47-0.16-1.22-0.24-1.9c3.7,1.34,7.3,1.35,10.94,0.03
		c0.08,0.93,0.05,1.76-0.55,2.6c-1.54,2.16-2.97,4.39-4.44,6.59C30.67,37.87,30.53,38.05,30.35,38.32z"/>
	<path d="M6.12,32.61c0.55-0.47,1.04-0.89,1.59-1.36c3.98,5,7.94,9.98,11.95,15.02c-0.56,0.4-1.08,0.79-1.69,1.23
		C14.02,42.54,10.09,37.6,6.12,32.61z"/>
	<path d="M45.67,60.95c0-1.44,0-2.84,0-4.27c2.88,0,5.74,0,8.64,0c0,1.4,0,2.81,0,4.27C51.46,60.95,48.59,60.95,45.67,60.95z"/>
	<path d="M37.3,31.89c1.58,0.74,3.07,1.44,4.64,2.18c-1.07,1.61-2.12,3.18-3.22,4.83c-1.53-0.76-3.03-1.51-4.58-2.28
		C35.2,35.02,36.23,33.48,37.3,31.89z"/>
	<path d="M23.43,31.89c1.06,1.59,2.09,3.12,3.15,4.72c-1.45,0.73-2.86,1.45-4.29,2.13c-0.12,0.06-0.43-0.07-0.52-0.21
		c-1-1.45-1.97-2.93-2.99-4.46C20.34,33.34,21.87,32.63,23.43,31.89z"/>
	<path d="M25.4,56.85c0.55-0.45,1.07-0.87,1.62-1.32c1.44,1.81,2.84,3.57,4.35,5.47c-0.91,0-1.69,0.01-2.46-0.01
		c-0.13,0-0.29-0.12-0.38-0.23C27.49,59.47,26.46,58.18,25.4,56.85z"/>
	<path d="M23.71,58.23c0.73,0.91,1.41,1.78,2.16,2.71c-1.84,0-3.59,0-5.49,0C21.54,60,22.61,59.13,23.71,58.23z"/>
	<path d="M10.44,56.69c-1.41,1.09-2.69,2.08-4.04,3.14c0-1.1,0-2.1,0-3.14C7.69,56.69,8.98,56.69,10.44,56.69z"/>
</g>
</svg>
