<svg width="186" height="40" viewBox="0 0 186 40" fill="none" xmlns="http://www.w3.org/2000/svg">
<path d="M2.23054 13.8645C2.46959 13.7849 2.62895 13.2271 2.86799 12.5896C3.02736 12.3506 3.10704 12.3506 3.50545 12.3506C3.74449 12.51 5.8162 13.7052 8.366 15.7769C8.366 15.7769 8.366 15.8566 8.28632 15.8566L8.92377 15.6175L8.76441 15.3785C7.48951 14.3426 4.93971 12.4303 2.94768 11.8725C2.38991 11.7132 1.59309 12.4303 1.51341 12.51C1.43373 12.6693 0.955644 12.9881 1.27437 13.4661C1.59309 13.8645 1.91182 13.9442 2.23054 13.8645" fill="#699FCA"/>
<path d="M13.0674 8.92431C14.1033 8.92431 14.8204 8.1275 14.8204 7.17132C14.8204 6.13547 14.0236 5.41833 13.0674 5.41833C12.0316 5.41833 11.3145 6.21515 11.3145 7.17132C11.3145 8.1275 12.1113 8.92431 13.0674 8.92431Z" fill="#699FCA"/>
<path d="M26.5338 4.30286C25.3386 4.30286 24.3027 5.33871 24.3027 6.53393C24.3027 7.72915 25.3386 8.76501 26.5338 8.76501C27.729 8.76501 28.7649 7.72915 28.7649 6.53393C28.7649 5.25903 27.729 4.30286 26.5338 4.30286" fill="#699FCA"/>
<path d="M2.9483 18.1674C3.90448 18.1674 4.70129 17.4502 4.70129 16.4144C4.70129 15.4582 3.98416 14.6614 2.9483 14.6614C1.99213 14.6614 1.19531 15.3785 1.19531 16.4144C1.27499 17.4502 1.99213 18.1674 2.9483 18.1674Z" fill="#699FCA"/>
<path d="M20.9562 39.3626C12.0319 39.3626 4.78088 32.1116 4.78088 23.1076C4.78088 22.4702 4.86056 21.8327 4.94024 21.1953C7.09163 20.3188 8.76494 18.7252 9.8008 16.7331C9.88048 16.5738 9.96016 16.3347 9.96016 16.1754C9.96016 15.6176 9.56175 15.3785 9.08367 15.3785C8.68526 15.3785 8.44622 15.6176 8.20717 16.016C7.49004 18.008 5.57769 19.4423 3.26693 19.4423C1.99203 19.4423 0.956175 19.0439 0 18.3267C0.0796813 18.8845 0 19.3626 0 19.8407V20.7172C0 20.8765 0 20.9562 0.0796813 21.1953V21.275C0.0796813 21.4343 0.159363 21.514 0.159363 21.6734V21.9124C1.03586 31.9522 9.48207 39.8407 19.8406 39.8407C20.4781 39.8407 21.0359 39.761 21.6733 39.761C21.5936 39.6017 21.5139 39.522 21.4343 39.3626H20.9562" fill="#699FCA"/>
<path d="M22.7085 7.96817C22.7085 6.45422 21.4336 5.17932 19.9197 5.17932C18.4058 5.17932 17.1309 6.45422 17.1309 7.96817C17.1309 9.48211 18.4058 10.757 19.9197 10.757C21.4336 10.757 22.7085 9.40243 22.7085 7.96817Z" fill="#41A648"/>
<path d="M19.3613 2.94821C19.9987 2.31076 19.9987 1.11554 19.3613 0.478088C18.7238 -0.159363 17.5286 -0.159363 16.8912 0.478088C16.2537 1.11554 16.2537 2.31076 16.8912 2.94821C17.688 3.66534 18.8035 3.66534 19.3613 2.94821Z" fill="#41A648"/>
<path d="M6.21447 6.45422C5.01926 6.45422 3.9834 7.4104 3.9834 8.60562C3.9834 9.80084 5.01926 10.8367 6.21447 10.8367C7.40969 10.8367 8.44555 9.80084 8.44555 8.60562C8.44555 7.4104 7.40969 6.45422 6.21447 6.45422" fill="#41A648"/>
<path d="M30.4371 5.33868C31.0746 5.33868 31.473 4.78091 31.473 4.30282C31.473 3.66537 30.9152 3.26697 30.4371 3.26697C29.8794 3.26697 29.4013 3.82474 29.4013 4.30282C29.3216 4.86059 29.7997 5.33868 30.4371 5.33868Z" fill="#41A648"/>
<path d="M33.3852 10.757C32.2697 10.757 31.3135 11.7131 31.3135 12.9084C31.3135 14.1036 32.2697 15.0597 33.3852 15.0597C34.5007 15.0597 35.4569 14.1036 35.4569 12.9084C35.4569 11.7131 34.5804 10.757 33.3852 10.757Z" fill="#41A648"/>
<path d="M39.3619 15.777C39.1229 14.9005 38.4057 14.263 37.5292 14.263C36.9715 14.263 36.4934 14.5021 36.095 14.9005C35.2185 16.0957 33.8639 16.8128 32.2703 16.8128C30.1986 16.8128 28.4456 15.4583 27.8081 13.7053C27.7284 13.4662 27.5691 13.1475 27.2504 13.0678C30.0392 9.7212 32.6687 7.96822 33.0671 7.72917C33.3858 7.49013 33.7045 7.56981 33.8639 7.88854C34.2623 8.52599 34.5013 9.24312 34.8998 9.3228C35.2185 9.40248 35.6169 9.16344 35.9356 8.68535C36.1747 8.0479 35.6169 7.80885 35.3778 7.64949C35.1388 7.49013 34.1029 6.85268 33.5452 7.09172C30.836 8.52599 27.7284 11.9523 26.7723 12.9881C26.2145 13.0678 25.7364 13.5459 25.7364 14.024C25.7364 14.263 25.8161 14.3427 25.8958 14.5818V14.6614C25.8958 14.7411 25.9755 14.7411 25.9755 14.7411C27.4097 17.3706 30.0392 19.3626 33.1468 19.6017C33.9436 21.4344 34.4217 23.4264 34.4217 25.4184C34.4217 33.2272 28.1268 39.6017 20.3181 39.6017C19.9994 39.6017 19.6806 39.6017 19.2822 39.522C19.4416 39.6814 19.5213 39.8407 19.6806 40.0001H20.079C31.0751 39.8407 39.9197 30.8367 39.9197 19.8407C39.7603 18.0081 39.3619 15.777 39.3619 15.777" fill="#41A648"/>
<path d="M24.7009 3.26699C25.418 3.26699 26.1351 2.62954 26.1351 1.83273C26.1351 1.03592 25.4977 0.478149 24.7009 0.478149C23.9837 0.557831 23.2666 1.1156 23.2666 1.91241C23.2666 2.62954 23.9837 3.26699 24.7009 3.26699" fill="#F05123"/>
<path d="M11.394 3.66537C11.394 3.02792 10.8362 2.62952 10.3581 2.62952C9.80035 2.62952 9.32227 3.18729 9.32227 3.66537C9.32227 4.30282 9.88003 4.70123 10.3581 4.70123C10.9159 4.70123 11.394 4.14346 11.394 3.66537Z" fill="#F05123"/>
<path d="M16.0151 18.5658C17.1306 18.5658 18.0868 17.6097 18.0868 16.4145C18.0868 15.2192 17.1306 14.2631 16.0151 14.2631C14.8995 14.2631 13.9434 15.2192 13.9434 16.4145C13.9434 17.6894 14.9792 18.5658 16.0151 18.5658Z" fill="#F05123"/>
<path d="M24.2227 21.3546C23.2665 21.3546 22.4697 22.0717 22.4697 23.1076C22.4697 24.0638 23.1869 24.8606 24.2227 24.8606C25.1789 24.8606 25.9757 24.1435 25.9757 23.1076C25.896 22.1514 25.1789 21.3546 24.2227 21.3546" fill="#F05123"/>
<path d="M29.4811 25.4184C29.4811 25.2591 29.4014 25.1794 29.4014 25.0997C29.4014 25.02 29.3217 24.9403 29.3217 24.9403C29.0827 24.1435 28.4452 23.6654 27.489 23.5858C26.4532 23.5061 25.7361 24.6216 25.7361 24.6216C24.6205 26.4543 22.5488 27.6495 20.2381 27.6495C19.6006 27.6495 19.1225 27.5698 18.5647 27.4105C21.991 20.9563 24.9392 19.1236 24.9392 19.1236C24.9392 19.1236 25.258 19.4423 25.5767 19.4423C26.2141 19.6017 26.8516 19.1236 26.6126 18.8049C26.2141 18.4065 25.1783 18.1674 24.9392 18.2471C20.7161 21.5937 18.246 26.2152 17.6086 27.4105C17.6086 27.6495 17.5289 27.8886 17.5289 28.1276C17.5289 28.4463 17.7679 28.765 18.0867 28.9244C18.9632 29.3228 19.9193 29.5619 20.8755 29.5619C21.9114 29.5619 22.7082 29.3228 23.5847 28.9244C23.5847 28.9244 23.9034 28.6854 24.2221 28.6854C25.0986 28.6854 25.7361 29.3228 25.7361 30.1993C25.7361 30.279 25.6564 32.9085 23.505 35.777H23.4253C22.3894 37.0519 20.7958 37.9284 19.2022 37.9284C17.2102 37.9284 15.4572 36.8925 14.5807 35.2989C13.7839 33.785 13.3058 31.9523 13.3058 30.1993C13.3058 25.9762 15.6165 22.3905 19.1225 20.4782C20.9552 19.6814 22.2301 17.769 22.5488 15.6176C22.6285 15.2989 22.6285 13.5459 21.2739 13.7053H21.1145C19.5209 12.8288 16.0149 11.0758 12.3496 11.0758C11.9512 11.0758 11.3137 11.7929 11.2341 12.4304C11.1544 12.7491 11.8715 12.7491 12.4293 12.271C12.6683 12.032 12.748 11.6336 12.748 11.6336C12.748 11.6336 14.5807 10.9961 20.5568 14.1834C20.3974 14.3427 20.3177 14.5818 20.3177 14.5818C20.0787 17.2113 18.007 19.2033 15.2978 19.2033C15.0588 19.2033 14.74 19.1236 14.501 19.1236C14.262 19.0439 14.1026 19.0439 13.8635 19.0439C13.0667 19.0439 12.3496 19.4423 11.8715 20.0798H11.7918C10.5169 22.2312 9.7998 24.7013 9.7998 27.4105C9.7998 31.3149 11.3934 34.9005 14.0229 37.53L14.4213 37.8487C14.4213 37.8487 16.4133 39.6814 19.1225 39.6017C20.1584 39.522 21.1942 39.3627 21.9114 38.9643C22.0707 38.8846 22.1504 38.8049 22.2301 38.7252C22.3098 38.6455 22.3894 38.6455 22.4691 38.6455C22.4691 38.6455 22.5488 38.6455 22.5488 38.5658C22.6285 38.4862 22.7082 38.4862 22.7082 38.4862H22.7879C22.841 38.433 22.8941 38.4065 22.9472 38.4065C26.9313 36.2551 29.6404 32.032 29.6404 27.0917C29.7201 26.8527 29.7201 26.1356 29.4811 25.4184" fill="#F05123"/>
<path d="M64.701 11.713L59.442 21.9919H57.3703L52.1113 11.713H54.7408L58.3265 18.725L61.8324 11.713H64.701V11.713Z" fill="#1A1A1A"/>
<path d="M76.3339 21.992H68.3658C67.4096 21.992 66.6128 21.7529 65.9753 21.0358C65.3379 20.3187 64.9395 19.6015 64.9395 18.7251V14.9004C64.9395 13.9442 65.2582 13.1474 65.9753 12.5896C66.6924 12.0318 67.4096 11.6334 68.3658 11.6334H76.3339V14.0239H68.3658C67.7283 14.0239 67.3299 14.2629 67.3299 14.9004V18.7251C67.3299 19.3625 67.6486 19.6015 68.3658 19.6015H73.8638V18.0876H70.5968V15.6972H76.2542L76.3339 21.992V21.992Z" fill="#1A1A1A"/>
<path d="M88.4458 21.0358C87.8083 21.6732 87.1709 21.992 86.3741 21.992H77.4498V19.6015H86.3741C86.6928 19.6015 86.9318 19.3625 86.9318 18.8047C86.9318 18.2469 86.6928 18.0079 86.3741 18.0079H79.9199C79.1231 18.0079 78.4059 17.7688 77.8482 17.0517C77.2107 16.4143 76.9717 15.6175 76.9717 14.8206C76.9717 13.9441 77.2107 13.227 77.7685 12.5896C78.4059 11.9521 79.0434 11.5537 79.9199 11.5537H88.8442V13.9441H79.9199C79.6012 13.9441 79.3621 14.1832 79.3621 14.741C79.3621 15.2987 79.6012 15.4581 79.9199 15.4581H86.3741C87.1709 15.4581 87.888 15.6971 88.4458 16.4143C89.0036 17.0517 89.2426 17.8485 89.2426 18.6453C89.2426 19.7609 89.0036 20.478 88.4458 21.0358V21.0358Z" fill="#1A1A1A"/>
<path d="M58.8054 29.9602C58.4866 30.2789 58.1679 30.5179 57.6101 30.5179H52.5902V29.0837H57.6101C57.8492 29.0837 57.8492 28.8446 57.8492 28.6056C57.8492 28.3665 57.6898 28.1275 57.6101 28.1275H53.9448C53.4667 28.1275 53.0683 27.8885 52.7496 27.5697C52.4308 27.251 52.2715 26.8526 52.2715 26.2948C52.2715 25.7371 52.5105 25.3387 52.7496 25.0199C53.0683 24.7012 53.4667 24.4622 53.9448 24.4622H58.9647V25.8964H53.9448C53.7057 25.8964 53.7057 26.1355 53.7057 26.3745C53.7057 26.6136 53.8651 26.8526 53.9448 26.8526H57.6101C58.0882 26.8526 58.4866 27.0916 58.8054 27.4104C59.0444 27.7291 59.2834 28.1275 59.2834 28.6853C59.2834 29.243 59.0444 29.6414 58.8054 29.9602V29.9602Z" fill="#F05123"/>
<path d="M60.8766 30.5179H59.4424V24.7012H65.0201C65.4982 24.7012 65.8966 24.9402 66.2153 25.3386C66.4543 25.737 66.6934 26.2151 66.6934 26.7729C66.6934 27.4103 66.4543 27.8087 66.2153 28.2071C65.8966 28.6056 65.5778 28.8446 65.0201 28.8446H61.5938V27.4103H65.0201C65.2591 27.4103 65.2591 27.1713 65.2591 26.7729C65.2591 26.3745 65.0998 26.1354 65.0201 26.1354H60.797V30.5179H60.8766Z" fill="#F05123"/>
<path d="M74.5022 28.6852C74.5022 29.243 74.2631 29.7211 73.8647 30.0398C73.546 30.3585 73.0679 30.5976 72.5101 30.5976H69.0838C68.5261 30.5976 68.048 30.3585 67.7292 30.0398C67.4105 29.7211 67.0918 29.243 67.0918 28.6852V26.5338C67.0918 25.976 67.3308 25.498 67.7292 25.1792C68.048 24.8605 68.5261 24.6215 69.0838 24.6215H72.5101C73.0679 24.6215 73.546 24.8605 73.8647 25.1792C74.2631 25.498 74.5022 25.976 74.5022 26.5338V28.6852ZM73.0679 26.5338C73.0679 26.2151 72.8289 26.0557 72.5101 26.0557H69.0838C68.7651 26.0557 68.5261 26.2948 68.5261 26.5338V28.6852C68.5261 29.0039 68.7651 29.1633 69.0838 29.1633H72.5101C72.8289 29.1633 73.0679 28.9242 73.0679 28.6852V26.5338Z" fill="#F05123"/>
<path d="M81.8332 30.5179H80.0006L77.0524 27.251H80.4787C80.7177 27.251 80.7974 27.0119 80.7974 26.6135C80.7974 26.2151 80.638 25.9761 80.4787 25.9761H76.2555V30.4382H74.8213V24.7012H80.4787C81.0364 24.7012 81.4348 24.9402 81.6739 25.3386C81.9129 25.6573 82.152 26.1354 82.152 26.7729C82.152 27.4103 81.9129 27.8087 81.6739 28.2071C81.4348 28.6056 81.0364 28.8446 80.4787 28.8446H79.9209L81.8332 30.5179Z" fill="#F05123"/>
<path d="M82.4707 26.0558V24.7012H89.0843V26.1354H82.4707V26.0558ZM86.4548 30.5179H85.0205V26.9322H86.4548V30.5179Z" fill="#F05123"/>
<path d="M47.1716 11.7131H46.5342V30.5179H47.1716V11.7131Z" fill="#2E2629"/>
<path d="M127.253 8.79346C118.424 8.79346 111.554 8.85024 111.554 8.85024V32.6694H118.509V24.3228L127.282 24.2376C127.282 24.2376 135.288 24.3512 136.452 17.4524C136.594 16.1748 136.963 9.44643 127.253 8.82185M125.465 19.7804H118.708V13.3075H125.664C129.496 13.3075 129.411 15.6354 129.496 16.4871C129.297 19.9791 125.436 19.752 125.436 19.752" fill="#FF0000"/>
<path d="M141.137 8.82167H149.001L156.325 25.9408L163.65 8.76489H171.315L159.959 32.6692H152.635L141.137 8.82167Z" fill="#FF0000"/>
<path d="M185.538 8.76489H179.008V32.6692H185.538V8.76489Z" fill="#FF0000"/>
</svg>
