<?xml version="1.0" encoding="utf-8"?>
<!-- Generator: Adobe Illustrator 26.2.1, SVG Export Plug-In . SVG Version: 6.00 Build 0)  -->
<svg version="1.1" id="Layer_1" xmlns="http://www.w3.org/2000/svg" xmlns:xlink="http://www.w3.org/1999/xlink" x="0px" y="0px"
	 viewBox="0 0 250 96.3" style="enable-background:new 0 0 250 96.3;" xml:space="preserve">
<style type="text/css">
	.st0{fill:#FFFFFF;}
</style>
<g>
	<g>
		<path class="st0" d="M5.2,34.1c0.7-0.2,1-1.7,1.5-3c0.3-0.4,0.7-0.7,1.4-0.4c0.7,0.3,5.6,3.1,11.5,8.2c0,0,0,0.1-0.1,0.1l1.7-0.5
			l-0.2-0.8c-3-2.5-9-7-13.9-8.5C6,28.9,4,30.5,3.7,30.8c-0.2,0.3-1.2,1.1-0.6,2.2C3.7,34,4.5,34.3,5.2,34.1"/>
		<g>
			<g>
				<path class="st0" d="M31.2,22.2c2.3,0,4.1-1.9,4.1-4.2c0-2.3-1.9-4.2-4.1-4.2c-2.3,0-4.1,1.9-4.1,4.2
					C27.1,20.3,28.9,22.2,31.2,22.2"/>
				<path class="st0" d="M63.6,11.1c-2.9,0-5.1,2.3-5.1,5.2c0,2.9,2.3,5.2,5.1,5.2c2.9,0,5.1-2.3,5.1-5.2
					C68.8,13.4,66.5,11.1,63.6,11.1"/>
				<path class="st0" d="M6.9,44.4c2.2,0,4-1.8,4-4.1c0-2.2-1.8-4.1-4-4.1c-2.2,0-4,1.8-4,4.1C3,42.7,4.7,44.4,6.9,44.4"/>
				<path class="st0" d="M50.1,95.1c-21.3,0-38.6-17.4-38.6-38.9c0-1.5,0.1-3.1,0.3-4.6c5.1-2,9.2-5.9,11.6-10.7
					c0.2-0.3,0.3-0.9,0.3-1.3c0-1.2-0.9-2-2.1-2c-0.9,0-1.7,0.6-2,1.4c-1.8,4.8-6.4,8.2-11.8,8.2c-3,0-5.6-1-7.8-2.7
					c0.1,1.2,0,2.4,0,3.7v1.8v0.1c0,0.3,0,0.7,0.1,1.1v0.2c0,0.3,0.1,0.6,0.1,0.9v0.3v0.3c2.3,24.3,22.6,43.3,47.3,43.3
					c1.4,0,2.9-0.1,4.3-0.2c-0.2-0.3-0.3-0.7-0.5-0.9C50.9,95.1,50.5,95.1,50.1,95.1"/>
			</g>
			<g>
				<path class="st0" d="M54.3,19.8c0-3.7-3-6.7-6.7-6.7c-3.7,0-6.7,3.1-6.7,6.7c0,3.7,3,6.7,6.7,6.7C51.2,26.5,54.3,23.5,54.3,19.8
					"/>
				<path class="st0" d="M46.4,7.8C48,6.2,48,3.6,46.4,2c-1.6-1.6-4.2-1.6-5.8,0c-1.6,1.6-1.6,4.3,0,5.9C42.2,9.5,44.8,9.5,46.4,7.8
					"/>
				<path class="st0" d="M14.8,16.2c-2.9,0-5.1,2.3-5.1,5.2c0,2.9,2.3,5.2,5.1,5.2c2.9,0,5.1-2.3,5.1-5.2
					C20,18.6,17.6,16.2,14.8,16.2"/>
				<path class="st0" d="M72.7,13.5c1.4,0,2.6-1.2,2.6-2.6c0-1.4-1.2-2.6-2.6-2.6c-1.4,0-2.6,1.2-2.6,2.6
					C70.1,12.4,71.3,13.5,72.7,13.5"/>
				<path class="st0" d="M79.9,26.5c-2.8,0-5,2.2-5,5c0,2.8,2.2,5,5,5c2.8,0,5-2.2,5-5C84.9,28.7,82.6,26.5,79.9,26.5"/>
				<path class="st0" d="M94.1,38.8c-0.4-2-2.2-3.7-4.4-3.7c-1.3,0-2.4,0.5-3.3,1.4c-2.1,2.8-5.4,4.6-9.1,4.6
					c-4.9,0-9.1-3.1-10.7-7.6c-0.2-0.7-0.6-1.3-1.3-1.7c6.7-7.9,12.9-12.2,13.7-12.7c0.8-0.4,1.4-0.3,1.9,0.3
					c0.9,1.4,1.6,3.1,2.4,3.3c0.8,0.1,1.8-0.3,2.3-1.7c0.5-1.4-0.8-2-1.2-2.4c-0.4-0.3-3-1.9-4.5-1.2c-6.5,3.2-14,11.5-16.3,14.1
					c-1.3,0.2-2.3,1.3-2.3,2.6c0,0.4,0.1,0.8,0.3,1.2v0.1c0,0.1,0.1,0.1,0.1,0.2c3.4,6.4,9.7,10.9,17.2,11.6c1.9,4.2,3,9,3,13.9
					c0,18.8-15.1,34-33.8,34c-0.8,0-1.5,0-2.4-0.1c0.3,0.3,0.7,0.8,0.9,1.1h0.9c26.2,0,47.5-21.4,47.5-47.9
					C95.1,43.9,94.1,38.8,94.1,38.8"/>
			</g>
			<g>
				<path class="st0" d="M59,8.7c1.8,0,3.3-1.4,3.3-3.3c0-1.8-1.4-3.3-3.3-3.3c-1.8,0-3.3,1.4-3.3,3.3C55.7,7.2,57.2,8.7,59,8.7"/>
				<path class="st0" d="M27.1,9.5c0-1.4-1.2-2.6-2.6-2.6c-1.4,0-2.6,1.2-2.6,2.6c0,1.4,1.2,2.6,2.6,2.6C26,12.1,27.1,10.9,27.1,9.5
					"/>
				<path class="st0" d="M38.3,45.3c2.8,0,5-2.2,5-5c0-2.8-2.2-5-5-5c-2.8,0-5,2.2-5,5C33.4,43.1,35.6,45.3,38.3,45.3"/>
				<path class="st0" d="M57.9,52c-2.2,0-4,1.8-4,4.1c0,2.2,1.8,4.1,4,4.1c2.2,0,4-1.8,4-4.1C61.9,53.9,60.2,52,57.9,52"/>
				<path class="st0" d="M70.5,61.6c0-0.3-0.1-0.5-0.2-0.8c0-0.1-0.1-0.3-0.1-0.3c-0.6-1.9-2.1-3.1-4.4-3.1
					c-2.6-0.2-4.1,2.5-4.1,2.5c-2.8,4.3-7.7,7.2-13.1,7.2c-1.3,0-2.7-0.2-4-0.5c8.2-15.4,15.3-20,15.3-20s0.8,0.8,1.5,0.9
					c1.5,0.3,3-0.8,2.5-1.4c-1-1-3.3-1.7-4-1.2c-9.9,7.8-15.9,19-17.4,22C42.2,67.4,42,68,42,68.6c0,0.8,0.5,1.5,1.2,1.9
					c2,0.9,4.2,1.4,6.7,1.4c2.4,0,4.6-0.5,6.5-1.4c0,0,0.8-0.4,1.7-0.4c2,0,3.7,1.7,3.7,3.7c0,0.1-0.2,6.6-5.4,13.4h-0.1
					c-2.4,3.1-6.2,5-10.3,5c-4.7,0-8.8-2.5-11.1-6.3c-1.9-3.7-3-7.9-3-12.3c0-10,5.6-18.8,13.8-23.2c4.5-2,7.5-6.5,8-11.6
					c0.1-0.8,0.2-4.9-3-4.7h-0.3c-3.8-2-12.3-6.2-21-6.2c-0.9,0-2.4,1.8-2.7,3.1c-0.2,0.8,1.7,0.8,2.9-0.3c0.6-0.5,0.8-1.5,0.8-1.5
					s4.5-1.7,18.7,5.9c-0.3,0.3-0.3,1-0.3,1c-0.5,6.3-5.6,11.2-12.1,11.2c-0.7,0-1.3-0.1-1.9-0.2c-0.4-0.1-0.9-0.2-1.4-0.2
					c-1.9,0-3.7,0.9-4.7,2.5h-0.1c-3,5.1-4.8,11.1-4.8,17.5c0,9.4,3.8,18,10,24.2l0.9,0.8c0,0,4.8,4.3,11.4,4.2
					c2.6-0.1,4.9-0.7,6.7-1.4c0.3-0.1,0.6-0.3,0.8-0.4c0.2-0.1,0.3-0.1,0.4-0.2c0,0,0.1,0,0.1-0.1c0.1-0.1,0.3-0.1,0.3-0.2h0.1
					c0.1-0.1,0.2-0.1,0.3-0.2c9.6-5.1,16.2-15.3,16.2-27C71,65.1,70.9,63.3,70.5,61.6"/>
			</g>
		</g>
	</g>
	<g>
		<g>
			<path class="st0" d="M169.8,32.7L153,66.2h-6.5l-16.9-33.5h8.6l11.6,22.9l11.4-22.9H169.8z"/>
			<path class="st0" d="M207,66.2h-25.5c-3,0-5.5-1-7.6-3c-2.1-2-3.2-4.6-3.2-7.6V43.3c0-3,1.1-5.5,3.2-7.6c2.1-2,4.6-3,7.6-3H207
				v7.8h-25.5c-2,0-3.1,0.9-3.1,2.8v12.3c0,1.9,1,2.8,3.1,2.8h17.8v-5.1h-10.4v-7.8H207V66.2z"/>
			<path class="st0" d="M246,63.2c-1.8,2-4,3-6.7,3h-28.5v-7.8h28.5c1.1,0,1.6-0.8,1.6-2.5c0-1.7-0.5-2.5-1.6-2.5h-20.7
				c-2.7,0-4.9-1-6.7-3c-1.8-2-2.7-4.4-2.7-7.3c0-2.8,0.9-5.2,2.6-7.2c1.8-2.1,4.1-3.1,6.8-3.1h28.5v7.8h-28.5
				c-1.1,0-1.6,0.8-1.6,2.5c0,1.7,0.5,2.5,1.6,2.5h20.7c2.7,0,4.9,1,6.7,3c1.7,2,2.6,4.4,2.6,7.3C248.6,58.8,247.7,61.2,246,63.2z"
				/>
		</g>
		<g>
			<path class="st0" d="M150.9,93.8h-14.4c-1.7,0-3.1-0.6-4.3-1.7c-1.2-1.1-1.8-2.6-1.8-4.3v-6.9c0-1.7,0.6-3.1,1.8-4.3
				c1.2-1.1,2.6-1.7,4.3-1.7h14.4v4.4h-14.4c-1.2,0-1.7,0.5-1.7,1.6v6.9c0,1,0.6,1.6,1.7,1.6h10v-2.9h-5.9v-4.4h10.2V93.8z"/>
			<path class="st0" d="M174.5,93.8h-5.9l-9.3-10.6h11.2c0.8,0,1.2-0.6,1.2-1.9c0-1.3-0.4-1.9-1.2-1.9H157v14.5h-4.3V75h18
				c1.6,0,2.8,0.6,3.8,1.9c1,1.2,1.4,2.7,1.4,4.5c0,1.8-0.5,3.3-1.4,4.5c-1,1.2-2.3,1.8-3.8,1.8h-1.7L174.5,93.8z"/>
			<path class="st0" d="M200.3,87.8c0,1.7-0.6,3.1-1.8,4.3c-1.2,1.1-2.6,1.7-4.3,1.7h-10.9c-1.7,0-3.1-0.6-4.3-1.7
				c-1.2-1.1-1.8-2.6-1.8-4.3v-6.9c0-1.7,0.6-3.1,1.8-4.3c1.2-1.1,2.6-1.7,4.3-1.7h10.9c1.7,0,3.1,0.6,4.3,1.7
				c1.2,1.2,1.8,2.6,1.8,4.3V87.8z M196,80.9c0-1-0.6-1.6-1.7-1.6h-10.9c-1.2,0-1.7,0.5-1.7,1.6v6.9c0,1,0.6,1.6,1.7,1.6h10.9
				c1.2,0,1.7-0.5,1.7-1.6V80.9z"/>
			<path class="st0" d="M224.9,88c0,1.6-0.5,3-1.5,4.1c-1,1.2-2.3,1.8-3.8,1.8h-12.3c-1.6,0-2.8-0.6-3.8-1.7c-1-1.1-1.4-2.5-1.4-4.1
				V75h4.3v13c0,1,0.3,1.4,0.9,1.4h12.3c0.6,0,0.9-0.5,0.9-1.4V75h4.4V88z"/>
			<path class="st0" d="M231.1,93.8h-4.3V75h18c1.5,0,2.8,0.6,3.8,1.9c1,1.2,1.5,2.7,1.5,4.5c0,1.8-0.5,3.3-1.5,4.5
				c-1,1.2-2.3,1.9-3.8,1.9h-11v-4.4h11c0.6,0,0.9-0.6,0.9-1.9c0-1.3-0.3-2-0.9-2h-13.7V93.8z"/>
		</g>
		<g>
			<rect x="111.5" y="32.7" class="st0" width="1.8" height="61.1"/>
		</g>
	</g>
	<g>
		<path class="st0" d="M109.1,2.3c0-0.8,0.6-1.5,1.5-1.5h5c3.9,0,6.3,2.2,6.3,5.5v0c0,3.7-3,5.6-6.6,5.6H112v4
			c0,0.8-0.6,1.4-1.4,1.4c-0.8,0-1.5-0.6-1.5-1.4V2.3z M115.4,9.4c2.2,0,3.6-1.2,3.6-2.9v0c0-1.9-1.4-2.9-3.6-2.9H112v5.9H115.4z"/>
		<path class="st0" d="M123.7,11.2L123.7,11.2c0-3.6,2.8-6.5,6.6-6.5c3.8,0,6.6,2.9,6.6,6.5v0c0,3.5-2.8,6.5-6.7,6.5
			C126.5,17.6,123.7,14.7,123.7,11.2z M134.1,11.2L134.1,11.2c0-2.2-1.6-4.1-3.8-4.1c-2.3,0-3.7,1.8-3.7,4v0c0,2.2,1.6,4,3.8,4
			C132.7,15.1,134.1,13.3,134.1,11.2z"/>
		<path class="st0" d="M142.1,16.3l-3.3-9.5c-0.1-0.2-0.1-0.5-0.1-0.7c0-0.7,0.5-1.3,1.4-1.3c0.7,0,1.2,0.5,1.4,1.1l2.4,7.5l2.4-7.5
			c0.2-0.7,0.7-1.1,1.5-1.1h0.2c0.7,0,1.2,0.5,1.5,1.1l2.4,7.5l2.4-7.6c0.2-0.6,0.6-1.1,1.4-1.1c0.8,0,1.3,0.6,1.3,1.3
			c0,0.2-0.1,0.5-0.1,0.6l-3.4,9.6c-0.3,0.9-0.9,1.3-1.6,1.3h-0.1c-0.7,0-1.3-0.4-1.6-1.2l-2.4-7.4l-2.4,7.4
			c-0.3,0.8-0.8,1.2-1.5,1.2h-0.1C143,17.5,142.4,17.1,142.1,16.3z"/>
		<path class="st0" d="M165,17.6c-3.6,0-6.4-2.6-6.4-6.5v0c0-3.6,2.5-6.5,6.1-6.5c4,0,5.9,3.3,5.9,6.1c0,0.8-0.6,1.4-1.3,1.4h-7.8
			c0.3,2,1.7,3.2,3.6,3.2c1.2,0,2.1-0.4,2.9-1.1c0.2-0.2,0.4-0.3,0.7-0.3c0.6,0,1.1,0.5,1.1,1.2c0,0.4-0.2,0.7-0.4,0.9
			C168.3,17,166.9,17.6,165,17.6z M167.8,10.2c-0.2-1.8-1.3-3.3-3.2-3.3c-1.7,0-3,1.3-3.2,3.3H167.8z"/>
		<path class="st0" d="M173.5,6.2c0-0.8,0.6-1.4,1.4-1.4c0.8,0,1.4,0.6,1.4,1.4v1.3c0.7-1.6,1.9-2.7,3.1-2.7c0.9,0,1.4,0.6,1.4,1.4
			c0,0.8-0.5,1.2-1.1,1.4c-2,0.4-3.4,1.9-3.4,4.9V16c0,0.8-0.6,1.4-1.4,1.4c-0.8,0-1.4-0.6-1.4-1.4V6.2z"/>
		<path class="st0" d="M188.5,17.6c-3.6,0-6.4-2.6-6.4-6.5v0c0-3.6,2.5-6.5,6.1-6.5c4,0,5.9,3.3,5.9,6.1c0,0.8-0.6,1.4-1.3,1.4H185
			c0.3,2,1.7,3.2,3.6,3.2c1.2,0,2.1-0.4,2.9-1.1c0.2-0.2,0.4-0.3,0.7-0.3c0.6,0,1.1,0.5,1.1,1.2c0,0.4-0.2,0.7-0.4,0.9
			C191.8,17,190.4,17.6,188.5,17.6z M191.3,10.2c-0.2-1.8-1.3-3.3-3.2-3.3c-1.7,0-3,1.3-3.2,3.3H191.3z"/>
		<path class="st0" d="M209.3,16c0,0.8-0.6,1.4-1.4,1.4c-0.8,0-1.4-0.6-1.4-1.4v-0.8c-0.9,1.3-2.2,2.3-4.2,2.3
			c-2.9,0-5.8-2.3-5.8-6.5v0c0-4.1,2.8-6.5,5.8-6.5c2,0,3.3,1,4.2,2.2V1.4c0-0.8,0.6-1.4,1.4-1.4c0.8,0,1.4,0.6,1.4,1.4V16z
			 M199.3,11.1L199.3,11.1c0,2.4,1.6,4,3.6,4c1.9,0,3.6-1.6,3.6-4v0c0-2.4-1.7-4-3.6-4C200.9,7.1,199.3,8.6,199.3,11.1z"/>
		<path class="st0" d="M219.9,1.4c0-0.8,0.6-1.4,1.4-1.4c0.8,0,1.4,0.6,1.4,1.4v5.5c0.9-1.3,2.2-2.3,4.2-2.3c2.9,0,5.8,2.3,5.8,6.5
			v0c0,4.1-2.8,6.5-5.8,6.5c-2.1,0-3.4-1-4.2-2.2V16c0,0.8-0.6,1.4-1.4,1.4c-0.8,0-1.4-0.6-1.4-1.4V1.4z M229.9,11.1L229.9,11.1
			c0-2.4-1.6-4-3.6-4c-1.9,0-3.6,1.6-3.6,4v0c0,2.4,1.7,4,3.6,4C228.3,15.1,229.9,13.6,229.9,11.1z"/>
		<path class="st0" d="M235.6,20.8c-0.4-0.1-0.9-0.5-0.9-1.2c0-0.7,0.5-1.2,1.2-1.2c0.2,0,0.4,0,0.5,0.1c0.3,0.1,0.6,0.2,1,0.2
			c0.8,0,1.3-0.4,1.8-1.3l0.1-0.3l-4.6-10.3c-0.1-0.2-0.2-0.5-0.2-0.7c0-0.8,0.6-1.4,1.4-1.4c0.7,0,1.1,0.4,1.4,1.1l3.3,8.3l3.1-8.3
			c0.2-0.6,0.6-1.1,1.4-1.1c0.8,0,1.4,0.6,1.4,1.3c0,0.2-0.1,0.5-0.1,0.7l-4.5,10.9c-1.1,2.5-2.2,3.5-4.2,3.5
			C236.8,21.2,236.2,21,235.6,20.8z"/>
	</g>
</g>
</svg>
