<svg width="112" height="51" viewBox="0 0 112 51" fill="none" xmlns="http://www.w3.org/2000/svg">
<g clip-path="url(#clip0_221_2)">
<path d="M2.79985 17.4C3.09985 17.3 3.29985 16.6 3.59985 15.8C3.79985 15.5 3.89985 15.5 4.39985 15.5C4.69985 15.7 7.29985 17.2 10.4999 19.8C10.4999 19.8 10.4999 19.9 10.3999 19.9L11.1999 19.6L10.9999 19.3C9.39985 18 6.19985 15.6 3.69985 14.9C2.99985 14.7 1.99985 15.6 1.89985 15.7C1.79985 15.9 1.19985 16.3 1.59985 16.9C1.99985 17.4 2.39985 17.5 2.79985 17.4" fill="#699FCA"/>
<path d="M16.4002 11.2C17.7002 11.2 18.6002 10.2 18.6002 9.00005C18.6002 7.70005 17.6002 6.80005 16.4002 6.80005C15.1002 6.80005 14.2002 7.80005 14.2002 9.00005C14.2002 10.2 15.2002 11.2 16.4002 11.2Z" fill="#699FCA"/>
<path d="M33.3 5.40002C31.8 5.40002 30.5 6.70002 30.5 8.20002C30.5 9.70002 31.8 11 33.3 11C34.8 11 36.1 9.70002 36.1 8.20002C36.1 6.60002 34.8 5.40002 33.3 5.40002" fill="#699FCA"/>
<path d="M3.7 22.8C4.9 22.8 5.9 21.9 5.9 20.6C5.9 19.4 5 18.4 3.7 18.4C2.5 18.4 1.5 19.3 1.5 20.6C1.6 21.9 2.5 22.8 3.7 22.8Z" fill="#699FCA"/>
<path d="M26.3 49.4001C15.1 49.4001 6 40.3 6 29C6 28.2 6.1 27.4 6.2 26.6C8.9 25.5 11 23.5 12.3 21C12.4 20.8 12.5 20.5 12.5 20.3C12.5 19.6 12 19.3 11.4 19.3C10.9 19.3 10.6 19.6 10.3 20.1C9.4 22.6 7 24.4 4.1 24.4C2.5 24.4 1.2 23.9 0 23C0.1 23.7 0 24.3 0 24.9V26C0 26.2 0 26.3 0.1 26.6V26.7001C0.1 26.9001 0.2 27.0001 0.2 27.2001V27.5C1.3 40.1 11.9 50 24.9 50C25.7 50 26.4 49.9001 27.2 49.9001C27.1 49.7001 27 49.6001 26.9 49.4001H26.3" fill="#699FCA"/>
<path d="M28.5 10C28.5 8.1 26.9 6.5 25 6.5C23.1 6.5 21.5 8.1 21.5 10C21.5 11.9 23.1 13.5 25 13.5C26.9 13.5 28.5 11.8 28.5 10Z" fill="#41A648"/>
<path d="M24.2996 3.7C25.0996 2.9 25.0996 1.4 24.2996 0.6C23.4996 -0.2 21.9996 -0.2 21.1996 0.6C20.3996 1.4 20.3996 2.9 21.1996 3.7C22.1996 4.6 23.5996 4.6 24.2996 3.7Z" fill="#41A648"/>
<path d="M7.8 8.09998C6.3 8.09998 5 9.29998 5 10.8C5 12.3 6.3 13.6 7.8 13.6C9.3 13.6 10.6 12.3 10.6 10.8C10.6 9.29998 9.3 8.09998 7.8 8.09998" fill="#41A648"/>
<path d="M38.1996 6.69998C38.9996 6.69998 39.4996 5.99998 39.4996 5.39998C39.4996 4.59998 38.7996 4.09998 38.1996 4.09998C37.4996 4.09998 36.8996 4.79998 36.8996 5.39998C36.7996 6.09998 37.3996 6.69998 38.1996 6.69998Z" fill="#41A648"/>
<path d="M41.8998 13.5C40.4998 13.5 39.2998 14.7 39.2998 16.2C39.2998 17.7 40.4998 18.9 41.8998 18.9C43.2998 18.9 44.4998 17.7 44.4998 16.2C44.4998 14.7 43.3998 13.5 41.8998 13.5Z" fill="#41A648"/>
<path d="M49.4002 19.8C49.1002 18.7 48.2002 17.9 47.1002 17.9C46.4002 17.9 45.8002 18.2 45.3002 18.7C44.2002 20.2 42.5002 21.1 40.5002 21.1C37.9002 21.1 35.7002 19.4 34.9002 17.2C34.8002 16.9 34.6002 16.5 34.2002 16.4C37.7002 12.2 41.0002 10 41.5002 9.70004C41.9002 9.40004 42.3002 9.50004 42.5002 9.90004C43.0002 10.7 43.3002 11.6 43.8002 11.7C44.2002 11.8 44.7002 11.5 45.1002 10.9C45.4002 10.1 44.7002 9.80004 44.4002 9.60004C44.1002 9.40004 42.8002 8.60004 42.1002 8.90004C38.7002 10.7 34.8002 15 33.6002 16.3C32.9002 16.4 32.3002 17 32.3002 17.6C32.3002 17.9 32.4002 18 32.5002 18.3V18.4C32.5002 18.5 32.6002 18.5 32.6002 18.5C34.4002 21.8 37.7002 24.3 41.6002 24.6C42.6002 26.9 43.2002 29.4 43.2002 31.9C43.2002 41.7 35.3002 49.7 25.5002 49.7C25.1002 49.7 24.7002 49.7 24.2002 49.6C24.4002 49.8 24.5002 50 24.7002 50.2H25.2002C39.0002 50 50.1002 38.7 50.1002 24.9C49.9002 22.6 49.4002 19.8 49.4002 19.8" fill="#41A648"/>
<path d="M31.0002 4.09998C31.9002 4.09998 32.8002 3.29998 32.8002 2.29998C32.8002 1.29998 32.0002 0.599976 31.0002 0.599976C30.1002 0.699976 29.2002 1.39998 29.2002 2.39998C29.2002 3.29998 30.1002 4.09998 31.0002 4.09998" fill="#F05123"/>
<path d="M14.3002 4.59993C14.3002 3.79993 13.6002 3.29993 13.0002 3.29993C12.3002 3.29993 11.7002 3.99993 11.7002 4.59993C11.7002 5.39993 12.4002 5.89993 13.0002 5.89993C13.7002 5.89993 14.3002 5.19993 14.3002 4.59993Z" fill="#F05123"/>
<path d="M20.1 23.3C21.5 23.3 22.7 22.1 22.7 20.6C22.7 19.1 21.5 17.9 20.1 17.9C18.7 17.9 17.5 19.1 17.5 20.6C17.5 22.2 18.8 23.3 20.1 23.3Z" fill="#F05123"/>
<path d="M30.4002 26.7999C29.2002 26.7999 28.2002 27.6999 28.2002 28.9999C28.2002 30.1999 29.1002 31.1999 30.4002 31.1999C31.6002 31.1999 32.6002 30.2999 32.6002 28.9999C32.5002 27.7999 31.6002 26.7999 30.4002 26.7999" fill="#F05123"/>
<path d="M36.9998 31.9C36.9998 31.7 36.8998 31.6 36.8998 31.5C36.8998 31.4 36.7998 31.3 36.7998 31.3C36.4998 30.3 35.6998 29.7 34.4998 29.6C33.1998 29.5 32.2998 30.9 32.2998 30.9C30.8998 33.2 28.2998 34.7 25.3998 34.7C24.5998 34.7 23.9998 34.6 23.2998 34.4C27.5998 26.3 31.2998 24 31.2998 24C31.2998 24 31.6998 24.4 32.0998 24.4C32.8998 24.6 33.6998 24 33.3998 23.6C32.8998 23.1 31.5998 22.8 31.2998 22.9C25.9998 27.1 22.8998 32.9 22.0998 34.4C22.0998 34.7 21.9998 35 21.9998 35.3C21.9998 35.7 22.2998 36.1 22.6998 36.3C23.7998 36.8 24.9998 37.1 26.1998 37.1C27.4998 37.1 28.4998 36.8 29.5998 36.3C29.5998 36.3 29.9998 36 30.3998 36C31.4998 36 32.2998 36.8 32.2998 37.9C32.2998 38 32.1998 41.3 29.4998 44.9H29.3998C28.0998 46.5 26.0998 47.6 24.0998 47.6C21.5998 47.6 19.3998 46.3 18.2998 44.3C17.2998 42.4 16.6998 40.1 16.6998 37.9C16.6998 32.6 19.5998 28.1 23.9998 25.7C26.2998 24.7 27.8998 22.3 28.2998 19.6C28.3998 19.2 28.3998 17 26.6998 17.2H26.4998C24.4998 16.1 20.0998 13.9 15.4998 13.9C14.9998 13.9 14.1998 14.8 14.0998 15.6C13.9998 16 14.8998 16 15.5998 15.4C15.8998 15.1 15.9998 14.6 15.9998 14.6C15.9998 14.6 18.2998 13.8 25.7998 17.8C25.5998 18 25.4998 18.3 25.4998 18.3C25.1998 21.6 22.5998 24.1 19.1998 24.1C18.8998 24.1 18.4998 24 18.1998 24C17.8998 23.9 17.6998 23.9 17.3998 23.9C16.3998 23.9 15.4998 24.4 14.8998 25.2H14.7998C13.1998 27.9 12.2998 31 12.2998 34.4C12.2998 39.3 14.2998 43.8 17.5998 47.1L18.0998 47.5C18.0998 47.5 20.5998 49.8 23.9998 49.7C25.2998 49.6 26.5998 49.4 27.4998 48.9C27.6998 48.8 27.7998 48.7 27.8998 48.6C27.9998 48.5 28.0998 48.5 28.1998 48.5C28.1998 48.5 28.2998 48.5 28.2998 48.4C28.3998 48.3 28.4998 48.3 28.4998 48.3H28.5998C28.6665 48.2334 28.7331 48.2 28.7998 48.2C33.7998 45.5 37.1998 40.2 37.1998 34C37.2998 33.7 37.2998 32.8 36.9998 31.9" fill="#F05123"/>
<path d="M81.2004 14.7L74.6004 27.6H72.0004L65.4004 14.7H68.7004L73.2004 23.5L77.6004 14.7H81.2004V14.7Z" fill="#1A1A1A"/>
<path d="M95.8 27.6H85.8C84.6 27.6 83.6 27.3 82.8 26.4C82 25.5 81.5 24.6 81.5 23.5V18.7C81.5 17.5 81.9 16.5 82.8 15.8C83.7 15.1 84.6 14.6 85.8 14.6H95.8V17.6H85.8C85 17.6 84.5 17.9 84.5 18.7V23.5C84.5 24.3 84.9 24.6 85.8 24.6H92.7V22.7H88.6V19.7H95.7L95.8 27.6V27.6Z" fill="#1A1A1A"/>
<path d="M111.001 26.4C110.201 27.2 109.401 27.6 108.401 27.6H97.2006V24.6H108.401C108.801 24.6 109.101 24.3 109.101 23.6C109.101 22.9 108.801 22.6 108.401 22.6H100.301C99.3006 22.6 98.4006 22.3 97.7006 21.4C96.9006 20.6 96.6006 19.6 96.6006 18.6C96.6006 17.5 96.9006 16.6 97.6006 15.8C98.4006 15 99.2006 14.5 100.301 14.5H111.501V17.5H100.301C99.9006 17.5 99.6006 17.8 99.6006 18.5C99.6006 19.2 99.9006 19.4 100.301 19.4H108.401C109.401 19.4 110.301 19.7 111.001 20.6C111.701 21.4 112.001 22.4 112.001 23.4C112.001 24.8 111.701 25.7 111.001 26.4V26.4Z" fill="#1A1A1A"/>
<path d="M73.8006 37.5999C73.4006 37.9999 73.0006 38.2999 72.3006 38.2999H66.0006V36.5H72.3006C72.6006 36.5 72.6006 36.2 72.6006 35.9C72.6006 35.6 72.4006 35.2999 72.3006 35.2999H67.7006C67.1006 35.2999 66.6006 34.9999 66.2006 34.5999C65.8006 34.1999 65.6006 33.7 65.6006 33C65.6006 32.3 65.9006 31.8 66.2006 31.4C66.6006 31 67.1006 30.7 67.7006 30.7H74.0006V32.5H67.7006C67.4006 32.5 67.4006 32.7999 67.4006 33.0999C67.4006 33.3999 67.6006 33.7 67.7006 33.7H72.3006C72.9006 33.7 73.4006 34 73.8006 34.4C74.1006 34.8 74.4006 35.3 74.4006 36C74.4006 36.7 74.1006 37.1999 73.8006 37.5999V37.5999Z" fill="#F05123"/>
<path d="M76.4006 38.3H74.6006V31H81.6006C82.2006 31 82.7006 31.3 83.1006 31.8C83.4006 32.3 83.7006 32.9 83.7006 33.6C83.7006 34.4 83.4006 34.9 83.1006 35.4C82.7006 35.9 82.3006 36.2 81.6006 36.2H77.3006V34.4H81.6006C81.9006 34.4 81.9006 34.1 81.9006 33.6C81.9006 33.1 81.7006 32.8 81.6006 32.8H76.3006V38.3H76.4006Z" fill="#F05123"/>
<path d="M93.5002 35.9999C93.5002 36.6999 93.2002 37.2999 92.7002 37.6999C92.3002 38.0999 91.7002 38.3999 91.0002 38.3999H86.7002C86.0002 38.3999 85.4002 38.0999 85.0002 37.6999C84.6002 37.2999 84.2002 36.6999 84.2002 35.9999V33.2999C84.2002 32.5999 84.5002 31.9999 85.0002 31.5999C85.4002 31.1999 86.0002 30.8999 86.7002 30.8999H91.0002C91.7002 30.8999 92.3002 31.1999 92.7002 31.5999C93.2002 31.9999 93.5002 32.5999 93.5002 33.2999V35.9999ZM91.7002 33.2999C91.7002 32.8999 91.4002 32.6999 91.0002 32.6999H86.7002C86.3002 32.6999 86.0002 32.9999 86.0002 33.2999V35.9999C86.0002 36.3999 86.3002 36.5999 86.7002 36.5999H91.0002C91.4002 36.5999 91.7002 36.2999 91.7002 35.9999V33.2999Z" fill="#F05123"/>
<path d="M102.7 38.3H100.4L96.7004 34.2H101C101.3 34.2 101.4 33.9 101.4 33.4C101.4 32.9 101.2 32.6 101 32.6H95.7004V38.2H93.9004V31H101C101.7 31 102.2 31.3 102.5 31.8C102.8 32.2 103.1 32.8 103.1 33.6C103.1 34.4 102.8 34.9 102.5 35.4C102.2 35.9 101.7 36.2 101 36.2H100.3L102.7 38.3Z" fill="#F05123"/>
<path d="M103.501 32.7V31H111.801V32.8H103.501V32.7ZM108.501 38.3H106.701V33.8H108.501V38.3Z" fill="#F05123"/>
<path d="M59.2004 14.7H58.4004V38.2999H59.2004V14.7Z" fill="#2E2629"/>
</g>
<defs>
<clipPath id="clip0_221_2">
<rect width="112" height="50.2" fill="white"/>
</clipPath>
</defs>
</svg>
